name processed_emg_signals
nRows=42
nColumns=7
 
endheader
time	LGLTMED	LRF	LADDLONG	LST	LTA	LGM
0.485	0.0303049249188214	0.8080564654420123	0.9986065083401322	0.0798680050020412	0.5408943478311186	0.03161167029621
0.486	0.0303203823670496	0.8098523191728159	0.9993984486992196	0.0797410971109125	0.5411076649124533	0.031726132564237
0.487	0.0303330667960597	0.8118157151604098	0.999863497546562	0.0795966001797078	0.5411707625866611	0.0318304234655085
0.488	0.0303429489203669	0.81394423849898	1.0	0.0794341154637143	0.5410850174565	0.0319246610606563
0.489	0.0303500099005604	0.8162351230038698	0.9998066762913612	0.0792532585209156	0.5408519645596449	0.0320089738591637
0.49	0.030354241494932	0.8186852534938787	0.99928262399763	0.079053660090909	0.5404732945224114	0.0320835002827605
0.491	0.0303556461947809	0.8212911686886963	0.9984273194367498	0.0788349669798368	0.5399508504355459	0.0321483881346895
0.492	0.0303542373429715	0.8240490647274945	0.9972406182336836	0.0785968429510407	0.5392866244605427	0.0322037940750881
0.493	0.0303500392354886	0.8269547993139403	0.9957227550684248	0.0783389696212515	0.5384827541755164	0.032249883102645
0.494	0.030343087205719	0.830003896492078	0.993874342622421	0.0780610473619179	0.5375415186706206	0.0322868280426706
0.495	0.0303334276912773	0.8331915520558835	0.9916963697449666	0.0777627962052528	0.5364653344042446	0.0323148090416196
0.496	0.0303211182831887	0.8365126395945167	0.9891901988650044	0.0774439567545586	0.5352567508324118	0.0323340130681426
0.497	0.0303062277571844	0.8399617171722665	0.9863575626779808	0.0771042910980937	0.5339184458247287	0.0323446334207163
0.498	0.0302888360868836	0.8435330346409773	0.9832005601406658	0.0767435837257832	0.5324532208804953	0.0323468692419215
0.499	0.0302690344386334	0.8472205415802002	0.9797216518092164	0.0763616424479761	0.5308639961584725	0.0323409250394443
0.5	0.0302469251477151	0.851017895858048	0.97592365455765	0.0759582993154257	0.5291538053333739	0.0323270102138457
0.501	0.0302226216758172	0.8549184728040453	0.9718097357151092	0.0755334115394299	0.5273257902915218	0.0323053385930978
0.502	0.0301962485495179	0.8589153749823467	0.9673834066609072	0.0750868624110667	0.525383195677214	0.0322761279738279
0.503	0.0301679412797489	0.8630014425525647	0.9626485159156354	0.0746185622182319	0.523329363300695	0.032239599669203
0.504	0.0301378462620851	0.8671692642030792	0.9576092417655562	0.0741284491589717	0.5211677264181189	0.0321959780633817
0.505	0.0301061206578137	0.8714111886395624	0.9522700844555874	0.0736164902494774	0.5189018038933764	0.0321454901725122
0.506	0.0300729322558271	0.8757193366094649	0.9466358579833728	0.0730826822248495	0.5165351942509241	0.0320883652123183
0.507	0.0300384593153677	0.8800856134398958	0.94071168152476	0.0725270524305611	0.514071569628015	0.0320248341724007
0.508	0.0300028903897936	0.8845017220650205	0.93450297051822	0.0719496597024378	0.5115146696339826	0.031955129397491
0.509	0.0299664241315449	0.8889591765164369	0.928015427433974	0.0713505952327264	0.5088682951234895	0.0318794841759276
0.51	0.0299292690785376	0.8934493158492636	0.921255032251432	0.070729983419908	0.5061363018901044	0.0317981323357196
0.511	0.0298916434222899	0.8979633184737243	0.9142280326676848	0.0700879826997961	0.5033225942861702	0.0317113078486205
0.512	0.0298537747581055	0.9024922168612964	0.906940934058064	0.0694247863555468	0.5004311187749558	0.0316192444427307
0.513	0.0298158998177526	0.9070269125915456	0.8994004892093762	0.0687406233042519	0.4974658574212176	0.0315221752242025
0.514	0.0297782641851573	0.9115581917060144	0.8916136878451577	0.0680357588577454	0.4944308213267769	0.0314203323086683
0.515	0.0297411219956673	0.9160767403347896	0.8835877459615649	0.0673104954553404	0.4913300440188941	0.0313139464629944
0.516	0.0297047356195434	0.9205731605616438	0.8753300949914166	0.0665651733662514	0.4881675748015188	0.0312032467579591
0.517	0.0296693753302948	0.925037986495576	0.8668483708132215	0.0658001713595059	0.484947472082403	0.031088460232412
0.518	0.0296353189584664	0.9294617005179344	0.8581504026220271	0.0650159073392985	0.4816737966920587	0.0309698115694556
0.519	0.0296028515315298	0.9338347496768514	0.8492442016796572	0.0642128389439496	0.4783506052128237	0.0308475227851461
0.52	0.0295722649004418	0.9381475622037204	0.8401379499631436	0.0633914641065778	0.4749819433371535	0.0307218129301831
0.521	0.0295438573536045	0.9423905641276448	0.8308399887313057	0.0625523215759204	0.471571839274154	0.0305928978050306
0.522	0.0295179332187857	0.9465541959658492	0.8213588070306328	0.0616959913956454	0.468124297222678	0.0304609896888087
0.523	0.0294948024537525	0.9506289294690836	0.8117030301622394	0.0608230953407111	0.464643290928708	0.0303262970822556
0.524	0.0294747802262077	0.9546052844002406	0.8018814081312524	0.0599342973092592	0.4611327573440346	0.0301890244649544
0.525	0.0294581864837343	0.9584738453241776	0.7919028040988444	0.0590303036686026	0.4575965904020991	0.030049372066985
0.526	0.0294453455143513	0.9622252783842876	0.7817761828559157	0.0581118635537353	0.4540386349256599	0.0299075356550956
